<svg xmlns="http://www.w3.org/2000/svg" id="Calque_7" viewBox="861.1 213.66 731.35 204.53">
  <defs>
    <style>
      .cls-1 {
        fill: #f6f5c0;
      }

      .cls-2 {
        fill: #542d13;
      }

      .cls-3 {
        fill: #7a551f;
      }

      .cls-4 {
        fill: #ae3a47;
      }
    </style>
  </defs>
  <path class="cls-1" d="M869.68,269.25l208.01-55.59v150.63s-208.01-34.07-208.01-34.07l-.38-.65c-10.89-18.31-10.94-41.1-.13-59.45l.51-.87Z"/>
  <ellipse class="cls-4" cx="1077.69" cy="288.98" rx="35.86" ry="75.31"/>
  <ellipse class="cls-3" cx="1077.69" cy="288.98" rx="33.87" ry="71.13"/>
  <path class="cls-4" d="M998.06,234.94c1.62-1.11,7.76-2.07,7.76-2.07-4.77-5.65-31.45-1.3-64.72,17.11-16.14,41.39-15.84,55.74-3.2,92.03,2.32,6.67,62.23,15.71,67.46,11.22,2.2-1.89-4.03-.45-7.3-4.88-6.6-8.96-12.99-28.71-13.62-53.55-.72-28.33,8.45-49.72,13.62-59.86Z"/>
  <path class="cls-2" d="M1394.46,282.18c-4.64,5.51-46.75,56.85-24.94,95.91,7.92,14.18,25.16,28.36,44.12,26.86,17.15-1.36,31.34-15.06,30.69-21.74-2.29-23.73-36.18.35-44.76-15.35-3.02-5.52-2.88-13.99,1.28-17.9,8.55-8.04,10.31,4.88,43.48,1.28,10.3-1.12,18.56-9.78,12.15-21.1-4.5-7.94-31.32,6.96-44.76-5.75-.88-.83-5.86-5.54-5.12-10.87,1.07-7.69,2.62-18.87,22.83-27.39,16.47-6.95,29.34,8.75,37.28-12.89,2.81-7.67-9.35-22.11-38.37-14.07-3.49.97-17.22,3.22-33.89,23.02Z"/>
  <path class="cls-2" d="M1438.58,252.13c2.5,1.33,5.26-4.92,14.07-7.67,10.42-3.25,16.18,2.49,21.1-1.28,5.45-4.18,5.84-16.95,0-22.38-7.33-6.81-23.22-.9-30.69,8.31-6.92,8.53-7.74,21.29-4.48,23.02Z"/>
  <path class="cls-2" d="M1376.41,268.62c-15.16-11.37-21.88,5.15-46.33,13.38-12.15,4.09-20.37-5.2-31.54-1.74-10.7,3.32-15.5,15.95-15.99,17.26-6.11,16.76,7.44,26.49,3.84,50.51-.63,4.21-2.73,18.25-9.59,19.82-6.93,1.59-15.21-10.32-18.54-16.62-6.96-13.18-5.51-26.95-5.12-30.05,1.51-11.93,4.08-15.08,5.13-23.22,2.39-18.59-12.61-21.36-20.59-21.36-8.49,0-14.41,5.57-18.89,11.86-3.53,4.95-13.94,36.98-15.36,42.47-5.64,21.82-6.75,29.56-14.6,37.75-12.28,12.8-37.55,21.41-52.71,10.7-10.35-7.31-5.92-13.87-1.06-21.02,3.75-5.51,18.34-19.23,31.12-26.52,15.89-9.06,12.47-23.18,12.47-23.18-3.01-16.36-19.52-14.97-27.83-11.78-12.02,4.62-21.08,17.79-26.86,25.9-5.59,7.84-9.59,14.28-19.39,15.98-14.15,2.46-24.68-.91-32.92-4-23.3-8.74-27.79-43.23-27.63-37.64.66,22.81,8.92,54.04,26.22,61.45,10.16,4.36,15.96-8.14,21.76-.95,2.53,3.14,1.06,6.2,2.56,12.79,4.08,17.98,6.37,26.75,10.23,31.33,20.15,23.87,48.72,15.57,54.51,12.71,9.24-4.56,13.55-4.27,25.88-13.27,19.69-14.38,22.71-21.16,27.74-31.67,5.62-11.75,6.75-35.28,19.37-27.38,7.96,4.98-7.63,36.83,17.65,50.67,12.7,6.95,18.05-13.56,28.13-9.59,6,2.36,4.96,9.12,14.07,15.35,2.25,1.53,10.88,7.58,16.62,4.48,11.53-6.23,6.24-11.4,8.95-29.41,1.65-10.98,1.31-13.37,3.84-15.35,7.03-5.49,18.36,4.64,26.22-.64,8.24-5.53,11.75-23.75,2.56-26.22-7.64-2.05-9,4.18-14.59,5.65-8.46,2.22-15.48-3.83-17.38-11.4-2.21-8.78,10.01-17.92,10.87-18.54,15.51-11.32,28.14-2.55,42.84-10.23,15.15-7.91,11.1-23.2,4.34-28.27ZM1235.48,316.45c-4.68,0-8.47-3.79-8.47-8.47s3.79-8.47,8.47-8.47,8.47,3.79,8.47,8.47-3.79,8.47-8.47,8.47Z"/>
  <path class="cls-2" d="M1506.59,355.69c-3.37-3.78,12.65-13.87,15.75-36.76,4.31-31.77-21.96-46.18-15.75-66.52,7.25-23.77,54.58-41.55,75.27-24.51,18.31,15.08,8.76,51.66,1.75,68.27-19.07,45.2-71.36,65.88-77.02,59.52Z"/>
  <circle class="cls-2" cx="1491.81" cy="388.77" r="13.83"/>
</svg>