<?xml version="1.0" standalone="no"?>
<!DOCTYPE svg PUBLIC "-//W3C//DTD SVG 20010904//EN"
 "http://www.w3.org/TR/2001/REC-SVG-20010904/DTD/svg10.dtd">
<svg version="1.0" xmlns="http://www.w3.org/2000/svg"
 width="2924.000000pt" height="2924.000000pt" viewBox="0 0 2924.000000 2924.000000"
 preserveAspectRatio="xMidYMid meet">
<metadata>
Created by potrace 1.14, written by Peter Selinger 2001-2017
</metadata>
<g transform="translate(0.000000,2924.000000) scale(0.100000,-0.100000)"
fill="#000000" stroke="none">
<path d="M8539 18699 c-20 -5 -47 -10 -60 -13 -35 -7 -93 -30 -100 -39 -3 -5
-10 -9 -15 -9 -5 0 -20 -5 -34 -11 -14 -6 -28 -11 -32 -12 -5 -2 -9 -3 -10 -5
-2 -1 -10 -3 -18 -5 -8 -1 -91 -23 -185 -49 -93 -25 -179 -47 -190 -49 -11 -1
-25 -6 -31 -9 -6 -4 -21 -9 -35 -11 -13 -3 -44 -11 -69 -18 -25 -7 -49 -14
-55 -15 -12 -3 -198 -52 -245 -65 -19 -5 -42 -11 -50 -13 -8 -2 -35 -9 -60
-16 -25 -7 -52 -14 -60 -15 -8 -2 -42 -11 -75 -20 -33 -9 -67 -18 -75 -20 -8
-3 -58 -16 -110 -30 -52 -14 -137 -37 -188 -50 -52 -14 -97 -27 -101 -29 -4
-3 -19 -7 -34 -10 -15 -4 -38 -8 -51 -11 -13 -3 -42 -12 -65 -20 -23 -8 -45
-14 -49 -14 -4 1 -9 0 -12 -1 -3 -1 -12 -3 -20 -5 -8 -1 -42 -10 -75 -19 -33
-9 -67 -18 -75 -21 -8 -2 -100 -27 -205 -55 -104 -29 -197 -53 -205 -54 -8 -2
-40 -10 -70 -19 -84 -24 -110 -28 -110 -13 0 17 -82 53 -155 67 -59 12 -222
14 -320 5 -27 -3 -50 -6 -50 -6 0 -1 -16 -3 -35 -5 -19 -2 -48 -6 -65 -9 -16
-3 -43 -8 -60 -11 -16 -3 -42 -8 -57 -11 -15 -3 -30 -5 -33 -5 -2 0 -19 -5
-37 -10 -18 -5 -49 -12 -68 -15 -19 -3 -44 -11 -55 -17 -11 -6 -21 -10 -22 -9
-2 1 -4 2 -5 1 -2 0 -14 -3 -28 -5 -72 -13 -391 -118 -535 -175 -16 -7 -32
-13 -35 -14 -3 -1 -18 -7 -35 -14 -167 -67 -197 -79 -310 -131 -38 -17 -86
-39 -105 -47 -94 -41 -470 -233 -550 -280 -19 -12 -51 -25 -70 -29 -48 -11
-50 -11 -52 -14 -2 -1 -12 -3 -22 -5 -11 -2 -31 -7 -45 -11 -14 -4 -29 -8 -33
-9 -5 -2 -9 -3 -10 -4 -2 -2 -12 -4 -23 -7 -11 -2 -78 -20 -150 -40 -71 -19
-139 -37 -150 -39 -11 -3 -85 -22 -165 -44 -187 -51 -153 -42 -475 -128 -154
-41 -307 -81 -340 -90 -33 -8 -67 -18 -75 -21 -8 -3 -19 -4 -23 -3 -4 0 -16
-3 -26 -8 -10 -6 -29 -12 -42 -15 -13 -2 -85 -21 -159 -41 -74 -20 -144 -37
-155 -38 -11 -1 -27 -8 -35 -16 -10 -10 -15 -10 -18 -2 -3 8 -8 9 -15 2 -7 -5
-48 -18 -92 -30 -44 -11 -138 -36 -210 -56 -71 -19 -139 -38 -150 -40 -35 -8
-129 -33 -163 -44 -18 -5 -35 -10 -37 -10 -3 -1 -6 -1 -7 -2 -13 -4 -45 -10
-55 -11 -7 -1 -13 -5 -13 -9 0 -4 -6 -7 -12 -6 -33 1 -44 -5 -60 -33 -10 -17
-18 -34 -18 -38 -1 -4 -7 -14 -15 -22 -26 -29 -163 -335 -157 -352 1 -5 -3 -8
-10 -8 -6 0 -9 -3 -5 -6 3 -3 -3 -30 -13 -60 -11 -30 -16 -54 -13 -54 3 0 1
-6 -5 -13 -6 -7 -14 -28 -17 -47 -3 -19 -10 -51 -15 -70 -5 -19 -11 -48 -14
-65 -3 -16 -10 -54 -16 -84 -18 -98 -25 -194 -25 -371 0 -212 15 -360 51 -510
3 -14 9 -41 14 -60 41 -174 133 -402 240 -595 34 -61 29 -58 110 -70 19 -3 46
-7 60 -10 14 -3 45 -7 70 -10 25 -4 68 -10 95 -15 129 -23 221 -39 274 -45 19
-2 57 -9 85 -14 61 -12 110 -20 151 -26 17 -2 46 -7 65 -10 19 -4 49 -8 65
-11 17 -2 41 -6 55 -9 14 -3 43 -7 65 -10 22 -3 47 -7 55 -10 8 -2 35 -6 60
-9 25 -3 56 -8 70 -11 37 -7 378 -63 430 -71 25 -3 54 -7 65 -9 11 -2 58 -11
105 -19 47 -8 101 -17 120 -20 19 -2 44 -7 55 -9 11 -3 43 -8 70 -12 28 -4 61
-9 75 -12 14 -2 36 -5 50 -7 14 -2 57 -9 95 -16 92 -15 147 -23 163 -23 6 0
12 -3 12 -7 0 -3 8 -6 18 -6 9 0 40 -4 67 -8 28 -4 68 -9 90 -12 26 -2 46 -12
57 -27 44 -56 53 -65 87 -83 20 -10 38 -21 41 -24 6 -7 175 -71 195 -74 8 -1
18 -5 21 -9 4 -4 17 -7 29 -7 12 0 25 -3 29 -7 3 -4 12 -8 19 -10 7 -1 84 -20
172 -43 165 -41 232 -57 275 -65 14 -3 36 -7 50 -10 14 -2 41 -7 60 -10 19 -3
42 -8 50 -10 17 -5 74 -15 110 -20 35 -5 81 -13 110 -20 14 -3 45 -8 70 -11
25 -3 56 -7 70 -9 14 -2 43 -7 65 -10 22 -4 66 -10 99 -15 32 -5 61 -9 65 -8
3 0 8 0 11 -2 11 -4 136 -18 215 -25 28 -2 68 -7 90 -9 74 -10 347 -28 395
-25 14 0 36 1 50 3 14 1 37 -2 53 -6 15 -3 27 -4 27 0 0 4 21 7 48 8 113 1
191 23 214 60 6 9 20 9 49 3 23 -6 44 -7 47 -4 3 2 11 0 19 -6 7 -6 13 -9 13
-7 0 3 24 1 53 -4 28 -5 66 -11 82 -13 17 -3 41 -7 55 -9 14 -3 43 -8 65 -11
23 -3 52 -8 65 -10 14 -3 41 -8 60 -10 19 -3 46 -8 60 -11 14 -4 43 -8 65 -10
21 -3 49 -7 62 -9 50 -11 179 -32 233 -39 14 -2 36 -6 50 -9 14 -4 41 -8 60
-11 19 -3 49 -7 65 -10 17 -3 53 -8 80 -12 28 -4 57 -9 65 -11 8 -2 31 -5 50
-8 19 -2 35 -4 35 -5 0 -1 18 -4 40 -6 22 -3 57 -9 78 -15 20 -5 42 -7 47 -4
5 3 11 1 14 -4 3 -5 19 -8 36 -7 16 1 30 -2 30 -7 0 -4 3 -6 8 -4 4 3 57 -4
117 -14 61 -11 126 -22 145 -25 19 -2 46 -7 60 -9 44 -9 64 -12 120 -20 72
-11 74 -12 80 -14 3 -2 21 -4 40 -6 38 -4 223 -34 295 -49 17 -3 45 -7 145
-21 3 0 10 -3 15 -6 6 -3 17 -5 25 -4 8 1 33 -5 54 -12 22 -7 41 -11 44 -8 2
2 13 0 22 -5 41 -22 244 -13 325 15 25 8 52 15 60 15 8 0 15 5 15 10 0 6 8 10
18 10 9 1 35 12 57 25 22 14 47 28 55 31 18 8 117 81 144 106 11 10 28 18 38
18 16 0 19 -4 18 -25 0 -3 6 -18 14 -34 9 -16 18 -62 21 -102 3 -41 8 -101 10
-134 7 -89 14 -133 40 -240 9 -38 19 -81 21 -95 3 -14 9 -40 14 -59 5 -19 7
-38 4 -42 -2 -4 1 -11 7 -14 5 -4 8 -13 5 -21 -3 -7 -1 -16 3 -18 7 -5 15 -39
21 -88 1 -4 6 -22 11 -40 6 -18 12 -40 14 -48 1 -8 17 -69 35 -135 17 -66 33
-127 35 -135 2 -8 13 -44 25 -80 12 -36 23 -69 24 -75 9 -50 121 -290 146
-315 3 -3 22 -26 43 -52 37 -46 165 -177 204 -208 10 -8 41 -34 68 -56 62 -52
235 -164 252 -164 7 0 13 -4 13 -9 0 -7 37 -26 70 -35 3 -1 19 -9 35 -18 35
-19 228 -87 265 -94 14 -3 50 -11 80 -19 120 -30 228 -40 420 -40 155 1 253 7
323 21 12 2 36 6 52 9 78 13 214 46 230 56 6 4 22 9 37 13 15 3 40 11 55 18
15 6 30 12 33 13 3 0 45 20 93 43 49 23 92 42 95 42 4 0 18 6 32 13 14 7 48
21 75 31 50 19 86 33 149 61 19 8 37 15 40 15 3 0 34 14 68 30 34 17 67 30 75
30 7 0 13 4 13 9 0 5 9 13 21 16 18 6 107 57 193 110 18 11 47 29 64 40 18 10
32 23 32 27 0 4 6 8 13 8 6 0 25 11 41 25 16 14 32 25 36 25 4 0 18 11 32 24
14 12 41 33 59 44 19 12 46 32 61 44 14 13 39 32 54 43 54 39 141 111 249 206
299 262 446 448 601 764 32 66 64 123 69 127 6 4 7 8 2 8 -4 0 2 19 14 42 34
67 89 219 124 348 33 116 66 223 75 239 6 12 9 21 6 21 -8 0 59 190 93 265 64
141 124 215 199 249 81 37 192 17 279 -50 27 -20 64 -71 68 -94 1 -3 4 -18 8
-35 15 -66 19 -126 17 -255 -6 -493 -2 -680 15 -760 3 -14 8 -38 11 -55 19
-106 55 -222 97 -316 28 -62 96 -172 109 -177 4 -2 8 -10 8 -17 0 -29 232
-237 310 -277 14 -7 27 -15 30 -18 3 -3 34 -19 70 -35 53 -23 81 -29 154 -32
63 -2 96 2 117 12 16 9 30 15 31 14 11 -5 131 65 164 96 7 5 33 28 59 50 26
22 66 57 89 78 22 21 58 53 79 70 22 18 48 40 59 50 12 9 27 17 35 17 7 0 13
4 13 9 0 21 106 55 175 55 135 1 220 -63 329 -245 96 -161 166 -248 261 -324
20 -16 42 -35 49 -40 21 -19 96 -65 105 -65 5 0 14 -7 22 -16 17 -20 217 -116
274 -131 51 -14 130 -22 177 -18 145 10 350 171 396 310 29 86 33 120 37 305
4 163 13 347 20 425 11 115 16 151 20 165 2 8 7 38 10 65 4 28 8 61 11 75 2
14 7 48 9 75 3 28 7 61 10 75 3 14 7 41 10 60 12 103 37 194 63 225 41 49 97
81 177 101 40 11 162 5 235 -11 41 -9 82 -18 90 -20 8 -1 35 -8 60 -15 25 -7
54 -14 65 -16 11 -3 43 -10 70 -16 28 -7 102 -12 165 -12 111 -1 117 0 181 32
39 20 89 56 120 88 71 73 79 82 79 88 0 3 15 29 34 58 18 29 37 64 41 78 4 14
11 30 15 35 9 12 49 133 53 160 1 11 5 25 8 30 13 23 17 214 7 275 -33 184
-147 279 -331 274 -55 -1 -81 -8 -132 -34 -35 -18 -72 -40 -82 -49 -10 -9 -41
-34 -68 -56 -28 -21 -53 -44 -57 -50 -5 -6 -8 -6 -8 0 0 6 -3 6 -8 -1 -13 -18
-112 -55 -165 -61 -115 -12 -156 -8 -262 29 -167 58 -322 239 -370 431 -16 65
-16 126 0 197 4 14 7 30 8 35 5 22 70 150 83 163 8 7 14 17 14 22 0 5 6 15 13
22 6 7 37 43 67 78 30 36 66 76 80 89 130 122 241 201 373 266 48 24 87 42 87
40 0 -3 20 4 44 15 44 19 191 53 276 64 65 9 212 17 390 21 85 2 155 4 155 5
0 1 25 3 55 5 56 3 107 10 170 22 41 8 48 10 58 13 4 1 12 3 17 4 80 14 238
83 338 149 246 160 358 384 324 647 -24 189 -131 369 -272 458 -81 52 -157 92
-174 92 -10 0 -21 3 -25 7 -24 24 -174 35 -257 20 -41 -8 -143 -41 -149 -48
-3 -3 -16 -10 -30 -14 -29 -8 -161 -82 -237 -131 -28 -19 -56 -34 -62 -34 -6
0 -11 -3 -11 -8 0 -4 -26 -22 -57 -40 -32 -18 -78 -46 -103 -62 -25 -16 -54
-34 -65 -40 -11 -6 -42 -24 -70 -40 -51 -30 -293 -151 -375 -188 -63 -28 -239
-90 -275 -97 -153 -30 -301 -24 -460 19 -33 9 -71 19 -83 22 -20 4 -103 26
-152 39 -62 18 -160 35 -213 38 -35 2 -68 7 -74 10 -6 4 -13 3 -17 0 -4 -4
-28 -9 -53 -10 -188 -12 -413 -148 -555 -334 -12 -17 -31 -39 -40 -47 -10 -9
-18 -20 -18 -24 0 -4 -15 -32 -34 -61 -35 -54 -128 -237 -121 -237 2 0 -3 -16
-11 -35 -14 -35 -37 -125 -49 -200 -8 -47 -9 -202 -2 -261 9 -64 27 -168 34
-184 3 -8 7 -25 9 -37 4 -33 55 -215 65 -235 5 -10 9 -27 9 -38 0 -11 4 -28 9
-38 10 -18 55 -199 67 -267 4 -22 8 -49 11 -60 5 -26 13 -83 16 -120 2 -17 6
-35 8 -40 3 -6 5 -93 4 -195 -2 -164 -7 -245 -21 -314 -2 -12 -6 -34 -8 -51
-14 -98 -34 -197 -58 -280 -10 -38 -21 -77 -23 -86 -2 -8 -11 -33 -20 -55 -9
-21 -18 -43 -19 -49 -4 -19 -58 -120 -74 -137 -8 -10 -12 -18 -9 -18 13 0
-101 -103 -119 -107 -5 -1 -26 -9 -47 -16 -28 -10 -53 -11 -94 -5 -59 9 -163
55 -163 71 0 6 -3 8 -6 4 -7 -7 -8 -5 -83 60 -79 70 -191 191 -191 207 0 4
-13 21 -30 39 -16 18 -30 37 -30 44 0 6 -4 13 -9 15 -27 10 -213 350 -210 384
0 4 -3 10 -8 13 -12 8 -68 185 -92 291 -37 166 -46 260 -45 490 0 171 6 261
20 334 2 11 6 38 9 61 9 57 60 279 81 350 10 33 18 62 19 65 1 3 8 30 17 60
74 247 93 484 54 665 -25 115 -123 262 -226 338 -131 97 -330 153 -560 157
-41 1 -77 1 -80 0 -3 0 -25 -3 -50 -5 -177 -14 -419 -169 -575 -370 -21 -27
-44 -55 -49 -60 -25 -24 -146 -264 -151 -300 -2 -10 -9 -28 -40 -100 -9 -22
-18 -44 -19 -50 -2 -5 -7 -21 -13 -35 -10 -25 -67 -184 -83 -230 -4 -14 -11
-34 -16 -45 -4 -11 -8 -24 -10 -30 -4 -12 -89 -253 -97 -275 -3 -8 -20 -60
-37 -115 -17 -55 -35 -109 -40 -120 -5 -11 -13 -36 -19 -55 -5 -19 -23 -80
-41 -135 -48 -150 -50 -158 -115 -410 -26 -99 -51 -196 -56 -215 -5 -19 -11
-47 -14 -63 -2 -15 -7 -33 -11 -39 -8 -12 -14 -45 -17 -80 -1 -10 -4 -18 -7
-18 -4 0 -7 -6 -7 -12 0 -20 -61 -232 -95 -333 -63 -189 -155 -371 -243 -480
-54 -67 -209 -219 -270 -265 -33 -25 -69 -53 -79 -62 -11 -10 -26 -18 -33 -18
-7 0 -13 -4 -13 -8 0 -5 -10 -14 -22 -20 -13 -6 -41 -23 -63 -37 -70 -43 -238
-129 -300 -153 -33 -12 -69 -27 -80 -32 -59 -27 -245 -81 -330 -94 -20 -4 -41
-8 -44 -11 -31 -18 -439 -27 -521 -11 -167 33 -281 76 -400 150 -74 47 -93 62
-164 131 -131 129 -163 273 -97 440 27 69 125 237 142 243 5 2 9 8 9 13 0 48
328 393 560 589 14 11 47 40 74 63 27 23 94 77 150 119 56 43 106 82 113 88 7
5 17 10 23 10 5 0 10 4 10 9 0 5 17 20 38 32 20 13 39 25 42 28 8 9 179 121
184 121 10 0 201 123 204 132 2 4 8 8 13 8 5 0 24 15 43 33 19 17 42 39 52 48
43 36 111 122 161 204 39 63 90 201 96 260 2 17 6 35 8 40 5 9 4 230 -1 230
-1 0 -4 14 -6 31 -3 17 -16 62 -30 100 -14 38 -28 79 -31 92 -3 12 -9 22 -14
22 -5 0 -9 4 -9 9 0 19 -59 98 -107 142 -175 164 -452 211 -783 133 -41 -10
-78 -17 -82 -16 -5 1 -8 -2 -8 -8 0 -5 -16 -12 -35 -16 -19 -3 -38 -10 -41
-15 -3 -5 -12 -9 -21 -9 -8 0 -28 -9 -44 -21 -16 -11 -29 -18 -29 -15 0 20
-248 -155 -326 -229 -11 -11 -36 -34 -55 -51 -59 -54 -171 -176 -243 -264 -38
-47 -76 -91 -85 -97 -8 -7 -11 -13 -6 -13 5 0 -1 -9 -13 -20 -12 -12 -22 -24
-22 -28 0 -4 -14 -23 -30 -42 -16 -19 -34 -40 -40 -47 -5 -7 -10 -16 -10 -22
0 -5 -3 -11 -8 -13 -10 -4 -255 -348 -264 -370 -4 -10 -11 -18 -16 -18 -5 0
-22 -19 -39 -42 -32 -44 -141 -158 -183 -192 -87 -69 -249 -145 -344 -160 -34
-6 -37 -4 -32 11 29 79 75 202 82 218 4 11 8 25 9 30 0 6 6 24 12 40 15 41 62
196 67 226 3 13 5 24 6 24 2 0 7 22 15 60 3 17 9 39 12 50 3 11 7 29 9 40 1
11 12 62 23 112 12 51 21 96 20 100 -1 5 0 10 1 13 3 9 9 44 16 90 3 25 8 47
9 50 2 3 7 37 10 75 4 38 9 78 11 90 3 11 7 43 9 70 3 28 7 66 10 85 4 32 12
130 20 275 8 117 3 720 -5 720 -1 0 -3 32 -5 70 -2 39 -6 90 -9 115 -3 25 -8
72 -11 105 -4 33 -8 71 -9 85 -12 92 -18 131 -27 180 -6 30 -12 66 -14 80 -6
44 -16 95 -20 110 -2 8 -6 31 -9 50 -3 19 -8 44 -11 55 -5 23 -36 155 -39 170
-1 6 -5 16 -9 23 -5 6 -6 12 -3 12 3 0 1 12 -5 28 -6 15 -13 37 -15 49 -8 43
-96 308 -106 321 -6 6 -8 12 -4 12 4 0 0 13 -9 30 -8 16 -15 31 -14 32 1 2 -8
24 -20 50 -21 47 -43 101 -42 105 0 3 -66 131 -115 220 -54 99 -138 224 -210
313 -21 25 -180 184 -206 205 -38 31 -107 75 -117 75 -5 0 -11 3 -13 8 -10 24
-169 85 -266 102 -68 12 -175 11 -233 -1z m-2834 -778 c-3 -3 -11 -6 -18 -7
-45 -10 -69 -16 -127 -34 -48 -14 -60 -15 -46 -5 11 8 28 15 39 15 10 0 26 4
35 9 9 5 32 11 50 14 19 3 36 7 38 10 2 2 11 4 19 4 8 0 13 -3 10 -6z m9363
-2660 c132 -40 229 -167 236 -307 7 -135 -65 -259 -183 -316 -25 -12 -48 -23
-51 -23 -3 -1 -18 -5 -35 -9 -48 -14 -158 -4 -182 16 -7 6 -13 8 -13 4 0 -10
-83 45 -112 75 -38 39 -78 105 -78 128 0 11 -4 22 -9 25 -5 3 -8 19 -7 36 1
16 -1 30 -6 30 -4 0 -5 6 -3 13 3 6 7 26 9 42 12 76 19 99 46 138 54 80 141
144 204 151 14 1 29 5 32 8 8 9 114 1 152 -11z"/>
<path d="M24159 18546 c-2 -2 -35 -6 -74 -9 -74 -7 -117 -13 -150 -24 -11 -4
-27 -8 -35 -8 -8 -1 -26 -6 -40 -12 -22 -10 -53 -22 -70 -28 -3 -1 -17 -5 -32
-9 -16 -5 -28 -12 -28 -17 0 -5 -6 -9 -14 -9 -14 0 -95 -43 -172 -93 -99 -62
-227 -179 -291 -264 -15 -21 -31 -40 -34 -43 -22 -19 -132 -242 -144 -295 -3
-11 -14 -53 -24 -92 -36 -133 -47 -330 -22 -378 3 -5 6 -15 7 -21 4 -24 39
-66 62 -75 33 -13 70 7 168 86 43 36 84 69 90 74 5 4 21 14 35 21 13 7 26 16
29 19 23 28 160 87 300 129 76 23 294 22 440 -2 153 -25 220 -24 282 3 46 21
90 59 123 107 26 36 73 146 79 182 15 87 19 124 20 185 0 37 -1 67 -4 67 -3 0
-5 12 -6 28 0 15 -4 43 -8 62 -4 19 -9 42 -10 50 -4 17 -20 59 -44 110 -63
136 -200 231 -356 245 -33 3 -62 8 -66 10 -4 3 -9 3 -11 1z"/>
<path d="M27748 18405 c-2 -1 -28 -6 -59 -9 -31 -4 -65 -8 -75 -10 -11 -2 -41
-7 -69 -10 -27 -4 -66 -11 -85 -16 -54 -15 -203 -52 -220 -55 -8 -2 -16 -4
-17 -5 -2 -2 -6 -3 -10 -4 -12 -3 -86 -27 -103 -33 -8 -4 -17 -7 -20 -7 -21
-4 -234 -92 -260 -107 -26 -15 -80 -38 -84 -36 -2 1 -12 -6 -22 -15 -11 -9
-21 -16 -24 -15 -10 3 -208 -119 -295 -181 -344 -247 -548 -519 -619 -824 -15
-64 -16 -281 -2 -343 28 -121 87 -297 108 -322 6 -7 8 -13 4 -13 -5 0 206
-423 230 -461 5 -8 9 -16 9 -19 1 -3 15 -33 33 -67 18 -35 32 -65 33 -68 0 -2
13 -31 29 -63 47 -94 135 -325 145 -377 2 -11 8 -35 13 -53 6 -18 11 -35 11
-37 1 -3 1 -6 2 -7 1 -6 7 -34 13 -63 3 -16 8 -41 11 -55 3 -14 7 -43 10 -65
3 -22 8 -59 11 -83 14 -98 7 -381 -11 -502 -17 -109 -78 -361 -93 -385 -4 -5
-7 -13 -8 -17 -1 -5 -3 -10 -4 -13 -1 -3 -3 -8 -5 -12 -1 -5 -7 -21 -13 -36
-7 -16 -12 -32 -12 -37 0 -4 -20 -49 -45 -99 -25 -50 -45 -93 -45 -96 0 -14
-148 -255 -163 -266 -5 -3 -8 -9 -7 -13 2 -7 -15 -33 -55 -85 -41 -51 -179
-265 -183 -281 -18 -89 -10 -113 43 -135 60 -24 175 -25 285 -1 14 3 36 8 49
11 54 11 226 65 291 92 8 3 20 7 26 8 35 8 336 150 377 177 15 11 27 17 27 14
0 -3 35 16 78 41 42 25 91 54 107 63 63 36 141 85 153 98 7 6 17 12 22 12 5 0
15 6 22 13 7 7 49 37 93 67 145 98 377 284 509 410 146 138 338 339 374 391 8
13 25 33 37 44 12 12 55 66 96 120 40 55 76 102 79 105 3 3 23 32 45 65 22 33
42 62 45 65 3 3 10 14 17 25 7 11 38 63 70 115 62 103 203 380 242 476 13 32
30 73 36 89 11 27 63 170 85 235 19 56 59 188 70 230 6 25 14 52 17 60 3 8 7
24 9 35 2 11 12 56 23 100 10 44 22 94 25 110 3 17 10 48 15 70 5 22 12 58 15
80 3 22 8 51 11 65 3 14 7 45 9 70 3 25 7 61 10 80 15 95 18 141 20 335 2 116
0 239 -5 275 -5 36 -11 87 -14 113 -3 27 -9 65 -14 85 -20 78 -36 137 -36 142
-2 10 -16 56 -25 75 -4 11 -18 45 -30 75 -29 71 -93 182 -138 240 -88 112
-252 245 -362 292 -19 9 -56 25 -81 36 -40 18 -121 43 -184 57 -11 3 -31 7
-45 10 -92 21 -169 28 -347 30 -111 2 -203 2 -205 0z"/>
<path d="M23205 16982 c-2 -2 -32 -5 -67 -8 -107 -7 -135 -11 -147 -18 -6 -4
-11 -5 -11 -3 0 4 -23 0 -119 -19 -25 -5 -127 -30 -236 -58 -278 -70 -590
-233 -817 -426 -7 -6 -26 -22 -43 -36 -97 -82 -137 -119 -229 -213 -115 -117
-103 -105 -176 -191 -30 -35 -63 -73 -73 -85 -66 -73 -257 -335 -385 -527 -94
-140 -117 -178 -208 -333 -93 -157 -220 -409 -309 -610 -64 -144 -195 -518
-195 -557 0 -9 -4 -19 -9 -22 -5 -4 -8 -14 -6 -24 1 -9 -2 -23 -8 -29 -5 -7
-7 -13 -4 -13 3 0 1 -15 -4 -32 -5 -18 -11 -44 -14 -58 -3 -14 -7 -36 -10 -50
-7 -30 -10 -44 -24 -140 -19 -121 -21 -135 -27 -238 -10 -147 -10 -174 -3
-209 4 -19 3 -33 -3 -33 -5 0 -7 -4 -4 -8 2 -4 7 -44 11 -87 4 -44 8 -91 10
-105 2 -14 7 -41 10 -60 19 -123 28 -165 60 -270 33 -113 79 -226 133 -330 47
-92 173 -288 213 -332 13 -15 35 -42 49 -60 27 -36 249 -258 295 -296 55 -46
173 -132 196 -145 13 -7 49 -29 79 -49 116 -75 375 -185 479 -203 19 -3 38 -8
43 -11 5 -3 19 -7 31 -9 12 -2 40 -6 62 -10 149 -23 352 -23 470 0 186 38 325
84 466 156 99 51 257 151 296 188 12 12 27 21 33 21 5 0 10 7 10 15 0 8 4 15
9 15 30 0 195 193 243 285 27 52 53 133 49 150 -2 6 -5 30 -8 55 -15 119 -58
219 -122 285 -39 40 -126 91 -169 100 -12 2 -25 6 -30 8 -38 23 -375 25 -488
3 -24 -5 -100 -15 -159 -21 -22 -2 -74 -7 -115 -11 -97 -10 -291 -10 -355 -1
-167 25 -297 114 -356 242 -25 56 -36 83 -37 95 0 3 -5 17 -11 32 -35 94 -30
307 10 403 7 17 13 35 13 40 2 17 52 89 80 115 15 14 35 32 44 41 21 21 90 59
117 66 51 11 115 8 180 -9 38 -10 75 -20 80 -21 30 -8 133 -40 150 -47 24 -11
87 -25 98 -22 4 1 7 -3 7 -9 0 -5 5 -7 11 -4 5 4 22 2 37 -4 15 -5 43 -13 62
-16 120 -18 178 -26 252 -32 136 -12 628 -7 628 7 0 3 15 5 33 4 17 -1 70 7
117 17 98 22 93 20 145 43 22 10 46 19 53 20 7 1 21 9 30 17 10 8 37 28 61 44
42 28 101 82 101 91 0 2 9 15 21 28 12 13 20 27 19 31 -1 4 2 11 7 14 12 8 43
76 49 104 2 12 7 33 10 47 32 128 -47 388 -136 445 -75 50 -234 56 -495 19
-22 -3 -53 -7 -70 -10 -55 -7 -112 -15 -136 -19 -14 -3 -54 -7 -89 -10 -36 -3
-85 -8 -110 -10 -117 -11 -304 -7 -415 10 -116 16 -278 81 -356 141 -54 42
-166 165 -197 216 -84 141 -92 223 -42 458 34 163 130 366 215 456 107 114
134 141 155 155 14 10 34 25 45 35 24 23 142 102 205 137 45 26 191 100 200
102 3 0 27 11 55 23 27 13 56 24 65 26 8 2 22 6 30 9 17 7 96 26 150 35 41 8
334 7 370 -1 14 -3 57 -8 96 -11 39 -4 82 -9 95 -11 33 -7 208 -7 239 -1 69
15 86 19 100 27 8 5 26 13 40 19 65 26 154 116 211 211 47 78 111 227 104 239
-3 5 -1 11 4 15 11 6 8 117 -4 150 -61 176 -232 326 -450 398 -76 25 -193 54
-225 55 -8 1 -37 4 -65 7 -53 7 -265 12 -270 7z"/>
<path d="M25248 12265 c-3 -4 -30 -8 -59 -10 -72 -4 -141 -15 -154 -23 -5 -4
-12 -7 -15 -8 -3 0 -23 -9 -45 -20 -91 -44 -176 -122 -233 -213 -114 -184
-100 -441 35 -617 45 -61 46 -61 113 -111 53 -39 134 -80 175 -89 11 -2 31 -7
45 -10 32 -8 152 -12 164 -6 4 2 27 6 49 8 44 3 48 4 150 55 174 86 286 264
292 468 4 126 -22 221 -90 326 -30 46 -117 135 -132 135 -7 0 -13 4 -13 9 0
10 -107 63 -160 79 -19 6 -51 12 -70 14 -19 2 -38 6 -41 11 -3 4 -8 5 -11 2z"/>
</g>
</svg>
